<?xml version="1.0" encoding="UTF-8"?>
<svg xmlns="http://www.w3.org/2000/svg" xmlns:xlink="http://www.w3.org/1999/xlink" width="5px" height="1px" viewBox="0 0 4 1" version="1.1">
<defs>
<clipPath id="clip1">
  <path d="M 0 0 L 0.765625 0 L 0.765625 0.964844 L 0 0.964844 Z M 0 0 "/>
</clipPath>
</defs>
<g id="surface1">
<g clip-path="url(#clip1)" clip-rule="nonzero">
<path style=" stroke:none;fill-rule:nonzero;fill:rgb(14.509804%,38.823529%,92.156863%);fill-opacity:1;" d="M 0.273438 0.742188 L 0.152344 0.742188 L 0.0507812 0.539062 L 0.144531 0.339844 L 0.0585938 0.339844 L 0 0.203125 L 0.402344 0.203125 L 0.464844 0.332031 L 0.273438 0.332031 L 0.175781 0.539062 Z M 0.273438 0.742188 "/>
<path style=" stroke:none;fill-rule:nonzero;fill:rgb(14.509804%,38.823529%,92.156863%);fill-opacity:1;" d="M 0.25 0.535156 L 0.3125 0.40625 L 0.40625 0.613281 L 0.597656 0.613281 L 0.699219 0.410156 L 0.761719 0.53125 L 0.660156 0.75 L 0.46875 0.75 L 0.507812 0.820312 L 0.449219 0.964844 Z M 0.25 0.535156 "/>
<path style=" stroke:none;fill-rule:nonzero;fill:rgb(14.509804%,38.823529%,92.156863%);fill-opacity:1;" d="M 0.441406 0.535156 L 0.5625 0.535156 L 0.765625 0.109375 L 0.640625 0.105469 L 0.597656 0.195312 L 0.507812 0 L 0.300781 0 L 0.25 0.125 L 0.441406 0.125 L 0.539062 0.328125 Z M 0.441406 0.535156 "/>
</g>
<path style=" stroke:none;fill-rule:nonzero;fill:rgb(100%,100%,100%);fill-opacity:1;" d="M 1.085938 0.3125 L 1.085938 0.210938 L 1.480469 0.210938 L 1.480469 0.3125 L 1.332031 0.3125 L 1.332031 0.792969 L 1.230469 0.792969 L 1.230469 0.3125 Z M 1.496094 0.792969 L 1.496094 0.355469 L 1.59375 0.355469 L 1.59375 0.433594 L 1.597656 0.433594 C 1.605469 0.40625 1.617188 0.386719 1.632812 0.371094 C 1.648438 0.359375 1.664062 0.351562 1.683594 0.351562 C 1.691406 0.351562 1.695312 0.351562 1.703125 0.351562 C 1.707031 0.351562 1.710938 0.351562 1.71875 0.355469 L 1.71875 0.460938 C 1.710938 0.460938 1.707031 0.457031 1.699219 0.457031 C 1.6875 0.457031 1.679688 0.457031 1.675781 0.457031 C 1.660156 0.457031 1.648438 0.460938 1.636719 0.46875 C 1.625 0.476562 1.613281 0.484375 1.609375 0.5 C 1.601562 0.511719 1.597656 0.527344 1.597656 0.546875 L 1.597656 0.792969 Z M 1.761719 0.792969 L 1.761719 0.355469 L 1.859375 0.355469 L 1.859375 0.792969 Z M 1.8125 0.300781 C 1.796875 0.300781 1.78125 0.292969 1.773438 0.28125 C 1.761719 0.269531 1.757812 0.257812 1.757812 0.238281 C 1.757812 0.222656 1.761719 0.207031 1.773438 0.195312 C 1.78125 0.183594 1.796875 0.179688 1.8125 0.179688 C 1.824219 0.179688 1.839844 0.183594 1.847656 0.195312 C 1.859375 0.207031 1.863281 0.222656 1.863281 0.238281 C 1.863281 0.257812 1.859375 0.269531 1.847656 0.28125 C 1.839844 0.292969 1.824219 0.300781 1.8125 0.300781 Z M 1.929688 0.792969 L 1.929688 0.722656 L 2.109375 0.457031 L 2.109375 0.453125 L 1.9375 0.453125 L 1.9375 0.355469 L 2.230469 0.355469 L 2.230469 0.433594 L 2.0625 0.695312 L 2.234375 0.695312 L 2.234375 0.792969 Z M 2.300781 0.792969 L 2.300781 0.722656 L 2.476562 0.457031 L 2.476562 0.453125 L 2.308594 0.453125 L 2.308594 0.355469 L 2.597656 0.355469 L 2.597656 0.433594 L 2.433594 0.695312 L 2.605469 0.695312 L 2.605469 0.792969 Z M 2.773438 0.210938 L 2.773438 0.792969 L 2.671875 0.792969 L 2.671875 0.210938 Z M 3.011719 0.800781 C 2.972656 0.800781 2.941406 0.792969 2.914062 0.773438 C 2.886719 0.757812 2.867188 0.730469 2.851562 0.695312 C 2.839844 0.664062 2.832031 0.621094 2.832031 0.578125 C 2.832031 0.53125 2.839844 0.492188 2.851562 0.457031 C 2.867188 0.425781 2.886719 0.398438 2.914062 0.378906 C 2.941406 0.359375 2.972656 0.351562 3.007812 0.351562 C 3.03125 0.351562 3.050781 0.355469 3.074219 0.363281 C 3.09375 0.375 3.113281 0.386719 3.128906 0.40625 C 3.144531 0.425781 3.15625 0.449219 3.164062 0.476562 C 3.171875 0.503906 3.175781 0.535156 3.175781 0.574219 L 3.175781 0.605469 L 2.871094 0.605469 L 2.871094 0.53125 L 3.082031 0.53125 C 3.082031 0.511719 3.078125 0.496094 3.074219 0.484375 C 3.066406 0.472656 3.058594 0.460938 3.046875 0.453125 C 3.035156 0.445312 3.023438 0.441406 3.007812 0.441406 C 2.992188 0.441406 2.980469 0.445312 2.96875 0.453125 C 2.957031 0.460938 2.945312 0.472656 2.941406 0.488281 C 2.933594 0.503906 2.929688 0.519531 2.929688 0.535156 L 2.929688 0.605469 C 2.929688 0.628906 2.933594 0.644531 2.941406 0.664062 C 2.945312 0.679688 2.957031 0.691406 2.96875 0.699219 C 2.980469 0.707031 2.996094 0.710938 3.011719 0.710938 C 3.023438 0.710938 3.035156 0.710938 3.042969 0.707031 C 3.050781 0.703125 3.058594 0.695312 3.066406 0.6875 C 3.074219 0.679688 3.078125 0.671875 3.082031 0.660156 L 3.175781 0.667969 C 3.167969 0.695312 3.160156 0.71875 3.144531 0.738281 C 3.132812 0.757812 3.113281 0.773438 3.089844 0.785156 C 3.066406 0.796875 3.039062 0.800781 3.011719 0.800781 Z M 3.011719 0.800781 "/>
</g>
</svg>
